<?xml version="1.0" encoding="UTF-8" standalone="no"?>
<!-- Created with Inkscape (http://www.inkscape.org/) -->
<svg
   xmlns:dc="http://purl.org/dc/elements/1.1/"
   xmlns:cc="http://creativecommons.org/ns#"
   xmlns:rdf="http://www.w3.org/1999/02/22-rdf-syntax-ns#"
   xmlns:svg="http://www.w3.org/2000/svg"
   xmlns="http://www.w3.org/2000/svg"
   xmlns:sodipodi="http://sodipodi.sourceforge.net/DTD/sodipodi-0.dtd"
   xmlns:inkscape="http://www.inkscape.org/namespaces/inkscape"
   width="235"
   height="365"
   id="svg21362"
   sodipodi:version="0.32"
   inkscape:version="0.46"
   version="1.0"
   sodipodi:docname="AMD_Rafale_profile.svg"
   inkscape:output_extension="org.inkscape.output.svg.inkscape"
   style="display:inline">
  <defs
     id="defs21364" />
  <sodipodi:namedview
     id="base"
     pagecolor="#ffffff"
     bordercolor="#666666"
     borderopacity="1.0"
     inkscape:pageopacity="0.0"
     inkscape:pageshadow="2"
     inkscape:zoom="1.979899"
     inkscape:cx="119.73052"
     inkscape:cy="180.53582"
     inkscape:document-units="px"
     inkscape:current-layer="layer6"
     showgrid="false"
     inkscape:window-width="1280"
     inkscape:window-height="1004"
     inkscape:window-x="-8"
     inkscape:window-y="-8" />
  <metadata
     id="metadata21367">
    <rdf:RDF>
      <cc:Work
         rdf:about="">
        <dc:format>image/svg+xml</dc:format>
        <dc:type
           rdf:resource="http://purl.org/dc/dcmitype/StillImage" />
        <dc:title>Profile (top view) from an AMD Rafale fighter</dc:title>
        <dc:date>09/2008</dc:date>
        <dc:creator>
          <cc:Agent>
            <dc:title>Eric Gaba (user Sting) for Wikipedia</dc:title>
          </cc:Agent>
        </dc:creator>
        <dc:source>Image:Rafale_3-vues.jpg</dc:source>
        <cc:license
           rdf:resource="http://creativecommons.org/licenses/by-sa/3.0/" />
      </cc:Work>
      <cc:License
         rdf:about="http://creativecommons.org/licenses/by-sa/3.0/">
        <cc:permits
           rdf:resource="http://creativecommons.org/ns#Reproduction" />
        <cc:permits
           rdf:resource="http://creativecommons.org/ns#Distribution" />
        <cc:requires
           rdf:resource="http://creativecommons.org/ns#Notice" />
        <cc:requires
           rdf:resource="http://creativecommons.org/ns#Attribution" />
        <cc:permits
           rdf:resource="http://creativecommons.org/ns#DerivativeWorks" />
        <cc:requires
           rdf:resource="http://creativecommons.org/ns#ShareAlike" />
      </cc:License>
    </rdf:RDF>
  </metadata>
  <g
     inkscape:groupmode="layer"
     id="layer6"
     inkscape:label="Profile"
     style="display:inline"
     transform="translate(-156.73148,-199.03582)">
    <path
       id="path21956"
       style="fill:#000000;fill-rule:evenodd;stroke:none;stroke-width:0.2;stroke-linecap:butt;stroke-linejoin:miter;stroke-miterlimit:4;stroke-dasharray:none;stroke-opacity:1;display:inline"
       d="M 275.94391,560.67668 L 275.94391,543.80168 C 276.63487,543.5849 277.81891,542.86683 277.81891,542.55168 L 277.81891,535.54275 L 295.00641,535.54275 L 296.88141,523.53382 L 301.97069,523.53382 L 302.95284,504.56061 L 383.99617,495.78114 L 383.99617,500.45309 C 383.99617,501.35398 386.84104,503.42042 387.65797,503.42042 L 388.35245,503.42042 C 388.62708,503.42042 389.0785,502.76568 389.0785,502.59967 L 389.0785,434.1934 C 388.65878,434.27876 388.28553,434.41671 387.97364,434.60378 C 385.80382,435.90523 383.99475,438.5185 383.99617,439.5914 L 383.99617,454.30175 L 385.19573,454.30175 L 385.19573,459.22624 L 310.69697,370.33282 C 309.69928,369.18586 308.91564,363.83472 308.92921,360.73637 L 325.84926,364.52444 L 325.84926,351.645 L 301.85814,323.48699 L 301.85814,320.83535 L 297.56499,316.5422 C 297.56499,316.5422 292.62259,300.21204 290.24139,289.01554 C 287.86019,277.81904 285.08,254.78284 282.66524,241.79091 C 280.25048,228.79898 274.33148,202.39496 274.23148,202.39496 C 274.13148,202.39496 268.21248,228.79898 265.79772,241.79091 C 263.38296,254.78284 260.60277,277.81904 258.22157,289.01554 C 255.84037,300.21204 250.89797,316.5422 250.89797,316.5422 L 246.60482,320.83535 L 246.60482,323.48699 L 222.6137,351.645 L 222.6137,364.52444 L 239.53375,360.73637 C 239.54732,363.83472 238.76368,369.18586 237.76599,370.33282 L 163.26723,459.22624 L 163.26723,454.30175 L 164.46679,454.30175 L 164.46679,439.5914 C 164.46821,438.5185 162.65914,435.90523 160.48932,434.60378 C 160.17743,434.41671 159.80418,434.27876 159.38446,434.1934 L 159.38446,502.59967 C 159.38446,502.76568 159.83588,503.42042 160.11051,503.42042 L 160.80499,503.42042 C 161.62192,503.42042 164.46679,501.35398 164.46679,500.45309 L 164.46679,495.78114 L 245.51012,504.56061 L 246.49227,523.53382 L 251.58155,523.53382 L 253.45655,535.54275 L 270.64405,535.54275 L 270.64405,542.55168 C 270.64405,542.86683 271.82809,543.5849 272.51905,543.80168 L 272.51905,560.67668 L 275.94391,560.67668 z"
       sodipodi:nodetypes="ccccccccccccccscccccccccccsscsscccccccccccsccccccccccccccc" />
  </g>
</svg>
